<?xml version="1.0" encoding="UTF-8"?>
<svg id="Capa_2" data-name="Capa 2" xmlns="http://www.w3.org/2000/svg" viewBox="0 0 164.89 213.17">
  <defs>
    <style>
      .cls-1 {
        fill: #f06;
      }

      .cls-2 {
        fill: #05010b;
      }

      .cls-3 {
        fill: #a08dff;
      }

      .cls-4 {
        fill: #b8014d;
      }

      .cls-5 {
        fill: #5543d6;
      }

      .cls-6 {
        fill: #7444f1;
      }

      .cls-7 {
        fill: #010101;
      }
    </style>
  </defs>
  <g id="Capa_4" data-name="Capa 4">
    <g>
      <path class="cls-6" d="m150.84,53.4c.2,1.68.36,3.16.49,4.54-8.52-7.93-20.66-14.51-20.66-14.51l-1.94-.66c-.49-.32-.84-.75-1.09-1.24.33-2.46,2.57-7.43,9.23-17.2,0,0,4.94-3.55,9.4-3.5s9.23-2.74,4.34-8.76c-4.89-6.01-25.52-14.48-32.71-11.42,0,0-4.46.49-6.44,3.23-1.64,2.27,4.34,8.41,6.47,10.47.33.42.65.83.96,1.22.49,1.24,1.56,4.62.68,9.3-.82,2.93-3.28,7.61-4.82,10.39-.42.57-.89,1.14-1.38,1.72-.59.27-.97.42-.97.42-15.58-2.43-23.42.32-23.42.32-.2-.13-.36-.25-.54-.38-.74-1.99-1.03-4.73.16-8.33,0,0,.15-1.99,4.42-5.6,0,0,1.13-3.73-3.38-3.89-1.2-.04-2.68,0-4.27.12-.48-.08-1.04-.01-1.66.17-3.98.47-8.33,1.55-11,3.56-2.03,1.53-3.34,3.03-3.37,4.31-.01.05-.04.09-.05.13,0,0,.02.05.07.13.14,1.22,1.56,2.22,4.82,2.78l5.34.58s.36-.09.63-.05c.16.27.02.78-.98,1.69-.24.09-.42.11-.42.11,0,0-.51,2.96,1.45,5.27.3.47.65.96,1.09,1.45,0,0,0,0,0,0-5.12,1.06-19.95,8.01-21.31,8.6-1.44.63-2.25.18-2.25.18-4.47-.8-7.41-2.34-9.37-3.97-1.16-1.61-2.4-3.45-3.71-5.56-.1-.42-.13-.67-.13-.67l-.17.18c-.93-1.52-1.9-3.16-2.9-4.97,0,0-.96-6,1.08-9.97,1.63-3.16,1.71-7.29-2.14-8-.37-.11-.73-.13-1.05-.1-.78-.02-1.67.07-2.7.3-7.56,1.68-24.38,16.33-24.86,24.14,0,0-1.56,4.2,0,7.2,1.56,3,13.21-1.44,13.21-1.44,0,0,14.98,4.89,23.87,14.99-4.86,4.77-8.97,10.51-11.9,17.3-4.21,7.1-6.79,13.19-8.6,17.13-.19.41-.44.76-.72,1.1-.25.25-.98.93-2.08,1.64-3.49,1.84-8.55,1.68-8.55,1.68-.06,0-.11,0-.18,0-1.43-.31-2.95-.92-4.54-1.96,0,0-2.21-.77-5-6.66,0,0-3.87-2.39-5.4,2.66-.83,2.72-1.63,6.76-1.85,10.79-.08.88-.06,1.48-.06,1.48h0c-.04,2.93.27,5.78,1.18,8,1.19,2.93,2.6,4.93,4.14,5.15,0,0,.02.01.02.02,0,0,.02,0,.05-.01,1.27.14,2.64-.95,4.07-3.72.69-1.17,1.36-2.73,1.93-4.75l.77-2s0-.33.09-.61c.5.21.95.41,1.34.61.05.08.11.15.16.24.26.64.16,1.16.16,1.16,0,0,3.14,1.44,6.3-.01.7-.2,1.44-.46,2.23-.86,2.34-1.18,3.76-1.22,4.62-.95.26.15.5.34.72.6,1.07,1.76-.78,4.88-.78,4.88-1.53,15.13,9.55,31.52,9.55,31.52.1,2.05-.28,3.61-.87,4.81-3.18,1.77-8.52,3.7-17.5,5.31,0,0-4.87-.85-7.38-3.46-2-2.08-5.16-3.25-6.72-.47,0,0,0,0,0,0-.05.08-.09.16-.13.25-.08.15-.15.3-.19.45-.23.61-.42,1.34-.52,2.23-.71,6.26,6.12,23.06,12,25.5,0,0,2.82,2.31,5.54,1.9,2.72-.41,2.38-10.54,2.38-10.54,0,0,7.58-10.04,17.57-14.28,2.12.42,3.84,1.36,3.84,1.36,23.05,22.69,44.49,23.42,44.49,23.42.94.22,1.58.64,2.03,1.15-.06,2.97-.32,6.81-.9,11.83,0,0-2.72,5.44-6.69,7.46-3.97,2.03-6.9,6.72.22,9.77,7.12,3.05,29.32.96,34.27-5.1,0,0,3.72-2.5,4.2-5.85.4-2.77-7.76-5.42-10.6-6.26-.49-.22-.96-.43-1.42-.63-1.23-1.05-4.67-4.55-5.62-11.17.54-.52,1.09-.97,1.53-1.31,6.02-.44,11.41-1.59,16.13-3.08,4.43-1.33,7.82-2.9,9.69-3.85,3.08.4,7.1,2.05,9.42,7.48,0,0,1.41,1.86.47,8.32,0,0,1.9,4.13,5.97.78,4.07-3.35,10.62-10.51,11.83-16.47.63-3.1.57-5.54-.59-6.58,0,0,0-.02-.01-.03,0,0-.02,0-.05-.02-.98-.82-2.72-.67-5.45.84-1.22.6-2.64,1.52-4.24,2.89l-1.75,1.24s-.2.3-.45.48c-.36.03-.78-.22-.75-1.51.14-.71.51-1.11.51-1.11,0,0-.14-.23-.4-.56-.08-.27-.3-.61-.87-.92-.65-.61-1.53-1.25-2.67-1.67,1.1-.87,1.67-1.41,1.67-1.41,8.37-6.72,11.2-10.9,11.68-14.77,4.61-14.27-12.41-18.3-12.41-18.3-.85-.06-1.66-.03-2.45.04,17.09-19.68,10.33-41.94,15.91-36.42,5.95,5.89,2.15,12.83,4.3,16.34,2.15,3.51,3.31,0,3.31,0v-25.36c-4.14-27.02-14.05-34.42-14.05-34.42Z"/>
      <ellipse class="cls-7" cx="100.33" cy="203.76" rx="16.48" ry="5.11" transform="translate(-24.21 13.83) rotate(-7.04)"/>
      <ellipse class="cls-7" cx="13.53" cy="166.13" rx="4.12" ry="13.26" transform="translate(-77.44 26.47) rotate(-28.42)"/>
      <ellipse class="cls-7" cx="5.57" cy="104.49" rx="2.73" ry="10.01"/>
      <ellipse class="cls-7" cx="25.35" cy="31.2" rx="16.6" ry="5.13" transform="translate(-14.78 28.86) rotate(-47.57)"/>
      <ellipse class="cls-7" cx="131.88" cy="10.84" rx="4.95" ry="16.36" transform="translate(76.58 131.06) rotate(-70)"/>
      <g>
        <path class="cls-7" d="m120.72,133.34s1.98,5.4-2.34,19.45c0,0,2.79,5.85,11.8-6.48,9.01-12.34,5.85-19.99,5.85-19.99,0,0-6.48-20.44-14.32-26.93,0,0-12.52,25.37-17.56,50.07,0,0,6.3-.99,16.57-16.12Z"/>
        <path class="cls-7" d="m109.56,116.05s1.35.99,1.17,3.78-1.17,6.57-1.17,6.57l-.9.38s-1.35-7.13.9-10.74Z"/>
        <path class="cls-7" d="m102.08,150.81s.45,2.97-2.88,1.08c0,0,1.53-19.36-.9-24.68,0,0-1.44-2.34-6.12,5.49,0,0-2.7,1.71-5.58-15.4,0,0-.18-6.84,2.79-13.69,0,0,1.08-.45,3.6,7.75,0,0,2.88,1.89,6.57-12.88,0,0,2.52-2.16,7.47,9.55,0,0-.36,26.66-1.26,27.92-.9,1.26-2.16,13.96-3.69,14.86Z"/>
        <path class="cls-7" d="m84.7,119.2l4.5,14.5s-.63,6.21-6.03,4.86c0,0-1.98-14.23-1.89-18.82.09-4.59,4.05-1.08,3.42-.54Z"/>
        <path class="cls-7" d="m86.59,104.97s-2.43,10.45-13.51,17.02c0,0-3.51,2.52-3.06-7.47,0,0-7.65-24.23-19.36-29.81,0,0,13.93,1.02,21.97,14.68,0,0,1.8,3.68,3.24-1.06,0,0,1.74-8.04,4.02-9.96,0,0,4.56,1.26,7.44,9.49,0,0,.24,6.66-.75,7.11Z"/>
      </g>
      <path class="cls-5" d="m34.42,106.46c.18-2.74,1.02-5.55,2.83-8.21,0,0,1.51-5.41,17.15,12.71,0,0,2.82-.9-2.72-9.31,0,0,6.65,2.1,10.82,20.54,0,0,8.75,1.39,9.26,8.09.5,6.71,2.47-1.44,3.78-3.74,1.31-2.3,1.46,10.73,2.56,18.34,0,0,.33,3.19,11.83-5.02l2.33-5.3s1.08,16.14-2.35,24.05c-3.43,7.91,18.13-6.26,24.61-17.3,0,0-4.69,22.46-12.11,26.96,0,0-3.78,6.46,16.95-3,0,0,4.99-.95,11.95-4.9,0,0-6.66,10.61-28.3,13.76,0,0-.76,2.4-7.57-7.06,0,0-2.88-3-11.65-.6,0,0-8.47,1.05-11.35-11.86,0,0,.65-17.39.76-10.51.04,2.3-39.29-13.07-38.8-37.64"/>
      <path class="cls-5" d="m127.92,30.52l5.68-6.33s-3.59-2.16-5.61-3.83c-2.35-1.94-5.56-7.65-9.56-9.02-1.72-.59-2.3-2.12-2.3-2.12l-.56-6.81s-7.26-.21-.95,7.73c2.45,3.08,6.98,8.84,6.98,8.84l5.9,3.79s.51,1.15-.59.83-3.47-2.47-3.47-2.47c0,0-3.56.55-3.3,2.15.48,2.97-6.38,14.59-6.38,14.59,0,0,2.54,8.23,14.17-7.35Z"/>
      <path class="cls-5" d="m95.7,184.62l-2.09,8.25s4.18.24,6.75.78c2.98.63,8.47,4.19,12.66,3.54,1.8-.28,3.02.81,3.02.81l3.66,5.76s6.52-3.19-2.76-7.28c-3.6-1.59-10.29-4.58-10.29-4.58l-6.98-.61s-.99-.78.14-1,4.22.57,4.22.57c0,0,2.9-2.14,1.92-3.44-1.8-2.41-3.88-6.34-3.88-6.34,0,0-3.19-4.05-6.39,3.55Z"/>
      <path class="cls-5" d="m29.31,161.95l-7.62,5.36s-1.57-4.41-3.44-6.6c-1.86-2.19-7.14-8.96-8.75-9.12-1.61-.16-4.18.42-4.18.42l-.92.15s-.42-2.47,2.46-2.79,9.61,5.7,9.61,5.7l4.47,5.42s1.18.7.97-.53c-.21-1.23-2.24-4.1-2.24-4.1,0,0,.74-1.7,2.36-1.56,1.62.14,18.6-5.41,18.6-5.41,0,0,7.12,2.44-11.33,13.07Z"/>
      <path class="cls-5" d="m85.13,43.92c.86-.25,1.42-1.08,1.31-1.97-.47-3.84-2-13.35-5.44-11.35l-.43-1.24c-.26-.76-.99-1.26-1.79-1.23-2.19.07-6.25.08-5.8-.91.96-2.11,3.64-2.7,4.34-2.82.12-.02.23-.05.35-.09l5.29-1.99c.58-.22,1-.71,1.14-1.31.06-.28.22-.56.57-.75.91-.48-4.06.32-4.06.32,0,0-8.47,1.28-10.98,6.19-.38.74-.24,1.67.39,2.22,1.17,1.01,3.81,2.37,9.42,2.08,0,0,1.59.14-.18,1.84-.36.35-.54.84-.54,1.34.01,1.18.38,3.36,2.45,5.68.99,1.11,1.47,2,1.68,2.69.29,1,1.29,1.6,2.29,1.31h0Z"/>
      <path class="cls-5" d="m28.22,104.07s-17.76-3.11-16.23,2.48l-2.48.9s-1.37,9.41-3.74,7.14c-2.38-2.27-2.69-5.74-2.69-5.74v-8.47s-1.4.09-1.67-1.08c-.27-1.17-.86,4.68-.86,4.68,0,0-1.25,11.51,4.89,15.12,0,0,4.48-.62,6.59-10.66,0,0,.74-2.03,2.36,1.41,0,0,3.34,1.74,8.16-.71,4.82-2.44,5.79-.02,5.79-.02l-.12-5.05Z"/>
      <path class="cls-5" d="m36.69,48.63l-9.28-6.72s4.5-3.59,6.3-6.63c1.8-3.04,7.56-11.88,7.11-13.82-.45-1.93-2.16-4.7-2.16-4.7l-.54-1.01s2.7-1.47,4.23,1.75c1.53,3.22-2.79,13.45-2.79,13.45l-4.52,7.37s-.34,1.66,1.01.92c1.35-.74,3.87-4.24,3.87-4.24,0,0,2.28.18,2.76,2.12s13.73,19.47,13.73,19.47c0,0,0,9.25-19.73-7.96Z"/>
      <path class="cls-3" d="m83.27,71.96c-1.71.94-6.62,3.6-8.39,4.8-35.16,23.97-9.14,64.69,10.08,70.97,19.22,6.28,32.82-1.4,41.26-5.35,0,0,5.74-7.56,10.08-9.31,4.34-1.75,16.53-1.16,18.75,7.1,2.23,8.26,4.69,12.22-10.08,24.08,0,0-21.16,19.98-55.88,14.4-34.72-5.58-49.93-31.24-53.62-41.19-3.69-9.95-12.04-25.74,1.14-59.68,13.19-33.94,55.38-42.5,75.78-38.13,20.39,4.36,38.33,16.75,42.9,25.13,4.57,8.38,1.45,15.44,1.45,15.44,0,0-3.73,14.31-23.25,4.45,0,0-9.6-10.35-22.65-14.82l-27.56,2.1Z"/>
      <ellipse class="cls-7" cx="80.96" cy="24.79" rx="8.54" ry="2.7" transform="translate(-3.71 25.56) rotate(-17.54)"/>
      <g>
        <path class="cls-2" d="m135.13,88.78s-.11,9.61-7.18,6.85c0,0-3.76-2.1-4.97-11.27,0,0-6.07-22.31-12.26-26.95s-5.32-5.85-19.28-5.52c0,0-4.85,2.61-5.4,6.79,0,0,10.05-3.2,12.59.88,0,0-8.06.94-10.11,6.79,0,0-1.3,2.84-1.55,5.91,0,0-7.23-4.04-11.93-1.49,0,0,12.59,3.06,36.2,23.19,0,0,4.97,3.81,15.99,4.56,0,0,11.32,1.55,7.9-9.75Z"/>
        <g>
          <path class="cls-1" d="m124.14,91.94s-2.1-1.99-4.86-11.27c-2.76-9.28-8.61-21.21-18.78-16.68-10.16,4.53-9.06,7.95-9.06,7.95,0,0,9.28,7.4,13.81,12.48,4.53,5.08,18.67,10.82,18.89,7.51Z"/>
          <path class="cls-4" d="m113.55,88.93s4.02-.83,2.7-3.98c-1.33-3.15-6.52-18.39-14.03-21.54,0,0,6.28-1.35,10.4,3.97,4.13,5.32,7.95,17.78,7.95,17.78,0,0,2.37,7.3,3.41,6.86s-3.18,3.2-10.43-3.09Z"/>
        </g>
      </g>
      <path class="cls-5" d="m135.72,171.35s-.01,0,0,0c.14.15,8.87,9.08,10.67,3.63l2.27.68s.95-1.14,1.04-1.12,7.54-5.93,7.55-2.65c0,2.6-2.19,5.93-2.19,5.93,0,0-.06.1-.06.11l-4.91,6.48c-.47-.48,1.51,1.35,1.09,2.47-.42,1.12,3.31-3.42,3.31-3.42,0,0,8.19-11.94,4.31-15.29,0,0-4.07-1.97-11.4,5.22,0,0-1.81,1.33-1.14-2.71,0,0,0-.01,0-.02,0-.52-.49-1.7-4.66-2-1.25-.09-2.09.69-2.09.69l-3.78,2Z"/>
      <ellipse class="cls-7" cx="151.26" cy="179.09" rx="9.96" ry="2.52" transform="translate(-82.58 195.58) rotate(-53.85)"/>
    </g>
  </g>
</svg>