<?xml version="1.0" encoding="UTF-8"?>
<svg id="Capa_2" data-name="Capa 2" xmlns="http://www.w3.org/2000/svg" viewBox="0 0 341.09 117.18">
  <defs>
    <style>
      .cls-1 {
        fill: #a08dff;
      }

      .cls-1, .cls-2, .cls-3, .cls-4, .cls-5, .cls-6, .cls-7, .cls-8, .cls-9 {
        stroke-width: 0px;
      }

      .cls-2 {
        fill: #010101;
      }

      .cls-3 {
        fill: #8c1f28;
      }

      .cls-4 {
        fill: #5543d6;
      }

      .cls-5 {
        fill: #181926;
      }

      .cls-6 {
        fill: #05010b;
      }

      .cls-7 {
        fill: #7444f1;
      }

      .cls-8 {
        fill: #f06;
      }

      .cls-9 {
        fill: #b8014d;
      }
    </style>
  </defs>
  <g id="Capa_2-2" data-name="Capa 2">
    <g>
      <path class="cls-7" d="m34.33,30.33s-3.83,1.98-11.55-11.88c0,0-.53-3.3.59-5.48,1.12-2.18.92-5.21-3.23-4.29s-13.4,8.98-13.66,13.27c0,0-.86,2.31,0,3.96.86,1.65,7.26-.79,7.26-.79,0,0,12.34,4.03,15.78,12.41l4.82-7.19Z"/>
      <path class="cls-7" d="m22.19,79.58s.51,3.47-12.19,5.75c0,0-2.68-.47-4.06-1.9-1.38-1.44-3.77-2.09-4.15,1.35-.39,3.44,3.36,12.68,6.59,14.01,0,0,1.55,1.27,3.05,1.05s1.31-5.79,1.31-5.79c0,0,6.36-8.43,13.71-8.85l-4.26-5.61Z"/>
      <path class="cls-7" d="m71.83,23.87s-5.53,2.61,3.41-10.5c0,0,2.71-1.95,5.16-1.92s5.08-1.51,2.39-4.81c-2.69-3.3-14.03-7.96-17.98-6.28,0,0-2.45.27-3.54,1.77s3.96,6.14,3.96,6.14c0,0,2.86,5.46-3.1,12.28l9.7,3.32Z"/>
      <path class="cls-7" d="m90.45,62.21s-.64,1.93-1.82,0,.91-5.74-2.36-8.98c-3.27-3.24,1.18,10.91-10.82,22.17,0,0-7.73,10.4-7.09,14.9,0,0,4.91-.64,8.64-3.32,0,0-7.36,10.72-17.82,9.54,0,0-2-4.5-6.09-5.58,0,0-6.73,1.93-9-2.04-2.27-3.97-3.27-8.79-2-12.76,0,0-1.55-5.25-3.45-6.75,0,0,.09,2.47.91,4.82.82,2.36-1.36,8.47-.18,9.65,1.18,1.18-.27.43,1.91,5.79,0,0-7.45,1.82-9.09-10.61,0,0,1.09-11.69-1.36-13.08s-3.91-9.43-5.18-12.22c-1.27-2.79-1.61-10.83-1.61-10.83,0,0,17.6-15.33,29.78-9.33s29.18,5.58,29.18,5.58c0,0,.82-.7-.27-9.81,0,0,5.45,4.07,7.72,18.92v13.94Z"/>
      <path class="cls-2" d="m64.31,73.95s1.09,2.97-1.29,10.69c0,0,1.53,3.22,6.49-3.56,4.95-6.78,3.22-10.99,3.22-10.99,0,0-3.56-11.24-7.87-14.8,0,0-6.88,13.94-9.65,27.52,0,0,3.47-.54,9.11-8.86Z"/>
      <path class="cls-2" d="m58.17,64.45s.74.54.64,2.08c-.1,1.53-.64,3.61-.64,3.61l-.5.21s-.74-3.92.5-5.9Z"/>
      <path class="cls-2" d="m54.06,83.56s.25,1.63-1.58.59c0,0,.84-10.64-.5-13.56,0,0-.79-1.29-3.37,3.02,0,0-1.49.94-3.07-8.47,0,0-.1-3.76,1.53-7.52,0,0,.59-.25,1.98,4.26,0,0,1.58,1.04,3.61-7.08,0,0,1.39-1.19,4.11,5.25,0,0-.2,14.65-.69,15.35s-1.19,7.67-2.03,8.17Z"/>
      <path class="cls-2" d="m44.51,66.18l2.48,7.97s-.35,3.42-3.32,2.67c0,0-1.09-7.82-1.04-10.35s2.23-.59,1.88-.3Z"/>
      <path class="cls-2" d="m45.55,58.36s-1.34,5.74-7.42,9.36c0,0-1.93,1.39-1.68-4.11,0,0-4.21-13.32-10.64-16.39,0,0,7.66.56,12.08,8.07,0,0,.99,2.02,1.78-.58,0,0,.96-4.42,2.21-5.47,0,0,2.51.69,4.09,5.21,0,0,.13,3.66-.41,3.91Z"/>
      <path class="cls-2" d="m64.63,86.95s1.19,2.23,0,3.91-4.38,1.86-4.38,1.86c0,0,1.51-5.27,2.72-5.77s1.66,0,1.66,0Z"/>
      <path class="cls-4" d="m39.41,78.46l2.5,1.66s.19-3.13.68-4.03-4.25-7.79-4.25-7.79l.77,4.91.31,5.24Z"/>
      <path class="cls-4" d="m64.13,74.22s-1.57,13.66-6.01,16.3c0,0-2.26,3.79,10.14-1.76,0,0,2.99-.56,7.15-2.88,0,0-3.98,6.23-16.93,8.08,0,0-.45,1.41-4.53-4.14,0,0-1.72-1.76-6.97-.35,0,0-5.07.62-6.79-6.96,0,0,.45-5.11.45-6.17,0-1.06-3.44-5.2-3.44-5.2,0,0,.54,2.91.81,3.88s.45,4.76-.27,6.96,2.81,6.43,2.81,6.43l-4.71-1.41s-2.35-4.5-3.44-6.43-.81-6.43-.63-8.81c.18-2.38-2.63-4.58-2.63-4.58,0,0-3.98-4.76-4.62-8.46,0,0-1.27,4.41,3.71,12.69,0,0,1,3.79-.54,7.14,0,0-.72,4.29,1.72,7.35,0,0-1.78,3.26-3.17.62-1.39-2.64-3.92-9.23-3.5-12.63.42-3.41-.06-8.17-2.35-10.93-2.29-2.76-4.71-8.58-1.27-13.52,0,0,.91-3.17,10.26,7.46,0,0,1.69-.53-1.63-5.47,0,0,3.26-1.35,10.99,11.75,0,0,.72,1.12,1.03,5.05s1.48-.84,2.26-2.19.87,6.3,1.53,10.77c0,0,.2,1.87,7.08-2.95l1.4-3.11s.65,9.47-1.41,14.12c-2.05,4.64,9.61-4.15,13.49-10.63Z"/>
      <path class="cls-7" d="m24.47,21.08s.38,4.37,7.26,5.61c0,0,.45.25,1.24-.1s9.88-4.6,12.15-4.8c0,0,2.1-5.42-1.32-7.8,0,0-.17,2.33-3.34.69,0,0,9.51-8.95,6.88.2,0,0-2.45,3.31,1.56,5.84,0,0,4.31-1.51,12.87-.17,0,0,7.48-2.97,5.79-6.63,0,0-5.84-9.12,4.95-8.82,0,0,8.04,1.82-1.52,12.57,0,0-2.97,5.76.83,6.2,0,0,10.79,5.84,14.55,11.63,0,0,3.96,7.67-2.32,11.19-6.29,3.51-9.36.15-11.34-2.08,0,0-22.77-21.78-39.6,6.44,0,0-8.81,27.13,18.81,32.48,0,0,10.89,2.67,20.1-7.52,0,0,2.77-3.07,7.03-2.77,0,0,9.8,2.32,6.63,10.61,0,0-2.67,4.86-7.62,8.23,0,0-.1,2.55,2.87,4.38,0,0,5.72-5.63,4.99-.53,0,0-5.82,9.78-5.64,9.19,5.35-16.91-6.24-5.89-.71-8.5,0,0-1.82-1.06-6.17-1.16,0,0-6.39,3.84-14.58,3.94,0,0-3.66,2.3-2.15,4.08,1.51,1.78,4.53,1.91,1.73,9.28,0,0-1.56,1.96-7.65.1,0,0-1.46-6.58-.27-10.17,0,0,.59-2.38-1.53-2.87,0,0-11.78-.4-24.46-12.87,0,0-4.01-2.21-5.74.46,0,0-.76.91-9.24,3.52,0,0-.17-.23-.79-1.02,0,0,4.98-7.56,8.65-5.48,0,0,2.92-.79,2.72-4.65,0,0-6.09-9.01-5.25-17.33,0,0,3.48-5.87-6.14-2.02,0,0-2.82-2.36-8.71-2.23,0,0-.25-5.99,4.8-5.59,0,0,.2,2.49,4.55,2.13,0,0,5.05.17,6.24-2.43,1.73-3.77,4.74-11.09,11.52-18.76,0,0-3.93-4.75-8.44-6.26"/>
      <ellipse class="cls-2" cx="14.76" cy="17.67" rx="9.12" ry="2.82" transform="translate(-8.23 16.5) rotate(-47.21)"/>
      <g>
        <path class="cls-7" d="m15.26,52.83s-3.64,3.98-8.5.81c0,0-1.21-.42-2.75-3.66,0,0-2.13-1.31-2.97,1.46-.84,2.77-1.66,8.04-.4,11.14,1.26,3.09,2.95,4.33,4.8.3l1.24-3.22s0-.92.54-.37.42,1.14.42,1.14c0,0,2.18,1.01,4.11-.37,0,0,2.77-1.93,3.76.07"/>
        <ellipse class="cls-2" cx="3.3" cy="57.46" rx="1.53" ry="5.51"/>
      </g>
      <g>
        <path class="cls-7" d="m50.2,22.73s-3.05-2.08-1.49-6.79c0,0,.08-1.1,2.43-3.08,0,0,.62-2.05-1.86-2.14s-7.02.39-9.31,2.12-2.94,3.39.81,4.04l2.94.32s.76-.2.43.37-.85.6-.85.6c0,0-.36,2.03,1.21,3.32,0,0,2.21,1.87.76,3.13"/>
        <path class="cls-4" d="m47.67,23.83s-.73-8.46-3.08-7.09l-.48-1.39s-4.27.28-3.93-.47c.61-1.34,2.48-1.57,2.48-1.57l3.66-1.37s-.21-.62.29-.89-2.23.18-2.23.18c0,0-5.39.82-6.29,4.05,0,0,.82,1.96,5.65,1.71,0,0,1.01.09-.36,1.24,0,0-.39,1.73,1.31,3.63,1.69,1.9.71,2.63.71,2.63l2.28-.66Z"/>
      </g>
      <path class="cls-4" d="m15.46,57.15s-9.76-1.71-8.92,1.36l-1.36.5s-.75,5.17-2.06,3.92-1.48-3.16-1.48-3.16v-4.65s-.77.05-.92-.59-.47,2.57-.47,2.57c0,0-.69,6.33,2.69,8.31,0,0,2.46-.34,3.62-5.86,0,0,.4-1.11,1.3.78,0,0,1.83.95,4.49-.39s3.18-.01,3.18-.01l-.07-2.78Z"/>
      <g>
        <path class="cls-7" d="m70.17,96.02s5.24-1.29,7.52,4.03c0,0,.78,1.02.26,4.57,0,0,1.04,2.27,3.28.43,2.24-1.84,5.84-5.78,6.5-9.05.66-3.27-.05-5.24-3.83-2.91l-2.81,1.99s-.51.76-.66,0,.28-1.18.28-1.18c0,0-1.25-2.05-3.63-1.97,0,0-3.38.07-3.09-2.15"/>
        <ellipse class="cls-2" cx="82.7" cy="98.79" rx="5.51" ry="1.53" transform="translate(-45.36 112.86) rotate(-56.34)"/>
        <path class="cls-4" d="m74.72,94.12s4.87,5.02,5.87,2l1.41.34s3.49-3.89,3.89-2.12c.4,1.76-.52,3.45-.52,3.45l-2.58,3.87s.67.38.43,1,1.82-1.88,1.82-1.88c0,0,4.08-4.88,2.37-8.41,0,0-2.24-1.08-6.27,2.87,0,0-.95.7-.65-1.36,0,0,.42-1.02-2.54-1.23-.69-.05-1.15.38-1.15.38l-2.08,1.1Z"/>
      </g>
      <path class="cls-4" d="m20.19,26.77l-5.1-3.7s2.48-1.97,3.47-3.65c.99-1.67,4.16-6.53,3.91-7.59-.25-1.06-1.19-2.58-1.19-2.58l-.3-.56s1.49-.81,2.33.96-1.53,7.39-1.53,7.39l-2.48,4.05s-.19.91.55.51,2.13-2.33,2.13-2.33c0,0,1.25.1,1.52,1.16.27,1.06,7.54,10.7,7.54,10.7,0,0,0,5.09-10.84-4.37Z"/>
      <ellipse class="cls-2" cx="7.28" cy="91.29" rx="2.3" ry="7.41" transform="translate(-42.35 14.32) rotate(-28.26)"/>
      <path class="cls-4" d="m15.72,89.52l-4.19,2.95s-.86-2.43-1.89-3.63c-1.02-1.2-3.92-4.92-4.81-5.01s-2.3.23-2.3.23l-.51.08s-.23-1.36,1.35-1.54,5.28,3.13,5.28,3.13l2.46,2.98s.65.39.54-.29-1.23-2.25-1.23-2.25c0,0,.41-.94,1.3-.86s10.23-2.98,10.23-2.98c0,0,3.91,1.34-6.23,7.18Z"/>
      <path class="cls-4" d="m70.16,16.58l3.12-3.48s-1.97-1.19-3.09-2.1c-1.29-1.07-3.05-4.2-5.26-4.96-.95-.32-1.26-1.16-1.26-1.16l-.31-3.74s-3.99-.11-.52,4.25c1.34,1.69,3.84,4.86,3.84,4.86l3.24,2.08s.28.63-.32.45-1.91-1.36-1.91-1.36c0,0-1.96.3-1.82,1.18.26,1.63-3.51,8.02-3.51,8.02,0,0,1.39,4.52,7.79-4.04Z"/>
      <g>
        <path class="cls-7" d="m47.72,96.06s3.68-4.88,1.86,10.88c0,0-1.5,2.99-3.68,4.1s-3.79,3.7.12,5.37c3.92,1.68,16.12.53,18.84-2.8,0,0,2.04-1.38,2.31-3.22s-6.36-3.59-6.36-3.59c0,0-5.07-3.51-2.96-12.32l-10.13,1.57Z"/>
        <path class="cls-4" d="m52.59,101.74l-1.15,4.53s2.3.13,3.71.43c1.64.35,4.66,2.3,6.96,1.95.99-.15,1.66.44,1.66.44l2.01,3.17s3.59-1.75-1.52-4c-1.98-.87-5.66-2.52-5.66-2.52l-3.84-.34s-.54-.43.07-.55,2.32.31,2.32.31c0,0,1.59-1.18,1.06-1.89-.99-1.32-2.13-3.48-2.13-3.48,0,0-1.75-2.23-3.51,1.95Z"/>
      </g>
      <path class="cls-1" d="m45.55,40.67c-.94.51-3.64,1.98-4.61,2.64-19.33,13.17-5.03,35.56,5.54,39.01,10.57,3.45,18.04-.77,22.68-2.94,0,0,3.16-4.16,5.54-5.12s9.08-.64,10.31,3.9c1.22,4.54,2.58,6.72-5.54,13.24,0,0-11.63,10.98-30.72,7.91-19.09-3.07-27.45-17.17-29.48-22.64-2.03-5.47-6.62-14.15.63-32.81,7.25-18.66,30.44-23.36,41.65-20.96,11.21,2.4,21.07,9.21,23.58,13.81,2.51,4.6.8,8.49.8,8.49,0,0-2.05,7.87-12.78,2.45,0,0-5.28-5.69-12.45-8.15"/>
      <g>
        <path class="cls-6" d="m69.88,47.63s-.06,5.28-3.95,3.76c0,0-2.06-1.15-2.73-6.19,0,0-3.34-12.26-6.74-14.81-3.4-2.55-2.92-3.22-10.6-3.04,0,0-2.67,1.43-2.97,3.73,0,0,5.53-1.76,6.92.49,0,0-4.43.52-5.56,3.73,0,0-.71,1.56-.85,3.25,0,0-3.98-2.22-6.56-.82,0,0,6.92,1.68,19.9,12.75,0,0,2.73,2.09,8.79,2.5,0,0,6.22.85,4.34-5.36Z"/>
        <g>
          <path class="cls-8" d="m63.71,51.19s-1.15-1.09-2.67-6.19-4.74-11.66-10.32-9.17c-5.59,2.49-4.98,4.37-4.98,4.37,0,0,5.1,4.07,7.59,6.86,2.49,2.79,10.26,5.95,10.38,4.13Z"/>
          <path class="cls-9" d="m57.89,49.53s2.21-.46,1.48-2.19-3.59-10.11-7.71-11.84c0,0,3.45-.74,5.72,2.18,2.27,2.92,4.37,9.78,4.37,9.78,0,0,1.3,4.01,1.88,3.77s-1.75,1.76-5.73-1.7Z"/>
        </g>
      </g>
    </g>
  </g>
  <g id="Capa_1-2" data-name="Capa 1">
    <g>
      <path class="cls-3" d="m116.31,80.14c0,1.5-.2,2.45-.61,2.83-.41.38-1.39.59-2.95.6h-.33c-.39,0-.77,0-1.14-.03.17.13.39.21.66.23.46.05,1.14.08,2.06.08,1.41,0,2.25-.13,2.52-.4.29-.28.43-1.09.43-2.43v-30.57c0-.65-.02-1.12-.05-1.4-.05-.57-.27-.93-.66-1.08,0,.02,0,.03.03.05v.08c.03.32.05.79.05,1.4v30.64Z"/>
      <path class="cls-3" d="m106.09,49.63v10.05c.02.5.07.85.15,1.05.1.22.28.36.53.43-.02-.15-.03-.34-.05-.58v-9.9c0-.77-.02-1.31-.05-1.63-.07-.57-.28-.93-.65-1.08v.08s.02.03.02.05c.03.35.05.86.05,1.53Z"/>
      <path class="cls-3" d="m106.87,68.66c-.42.03-.66.3-.73.8-.03.3-.05.77-.05,1.4v9.45c-.02,1.39-.22,2.27-.6,2.66-.38.38-1.28.59-2.68.6h-.85c-.25,0-.53,0-.83-.03.22.15.58.24,1.08.28.35.02.96.03,1.83.03,1.24-.02,1.99-.16,2.26-.43.27-.27.41-1.01.43-2.23v-9.3c0-.77.02-1.31.05-1.63.1-.82.53-1.25,1.28-1.3.26-.02.55-.04.87-.05-.01-.04-.02-.09-.03-.13-.02-.06-.05-.11-.07-.16-.21,0-.41-.01-.59-.01-.49,0-.94.02-1.35.05Z"/>
      <path class="cls-5" d="m110.13,68.91c-.45,0-.85,0-1.21,0,.13.5.2,1.18.2,2.08v8.9c.02.7.04,1.24.08,1.6.08.62.45.96,1.09,1.03.44.05,1.12.07,2.03.05,1.41,0,2.25-.13,2.54-.4.27-.27.41-1.07.41-2.41v-14.36c-.01-.26-.01-.66-.01-.99,0-.32.01-.54.02-.8v-.95s-.01-6.74-.01-6.74v-6.72c0-.65,0-1.13-.03-1.43-.08-.72-.47-1.11-1.17-1.18-.49-.03-1.25-.05-2.26-.05-1.29.02-2.06.14-2.31.38-.24.23-.36.98-.38,2.23v9.1c0,.75-.03,1.36-.1,1.83-.12.79-.57,1.23-1.35,1.33-.68.1-1.36.13-2.03.1-.88-.03-1.47-.19-1.75-.48-.29-.28-.45-.85-.48-1.71-.02-.12-.03-.59-.03-1.43v-8.5c0-.77-.02-1.3-.05-1.6-.07-.74-.45-1.13-1.14-1.18-.47-.05-1.23-.08-2.26-.08-1.29.02-2.06.14-2.31.38-.25.23-.38.98-.38,2.23v30.16c0,.89,0,1.43.02,1.63.03.64.15,1.05.36,1.25.19.22.59.34,1.22.38.34.02.95.03,1.83.03,1.25-.02,2.02-.16,2.29-.43.29-.27.43-1.01.43-2.23v-9.33c0-.75.03-1.29.08-1.6.08-.82.51-1.26,1.27-1.33.76-.05,1.72-.06,2.87-.03.59.03.99.36,1.23.96.25,0,.52.02.81.04.2,0,.37.08.5.25Z"/>
      <path class="cls-5" d="m138.91,82.47c.24.02.98.03,2.24.03,1.32.02,2.11-.09,2.36-.33.39-.35.46-1.26.2-2.73-.07-.43-.81-4.81-2.24-13.11l-.16-.8c-.12-.28-.15-.39-.19-.7-.04-.32-.1-.67-.12-1l-.19-1.29c-.93-5.53-1.69-10-2.29-13.41-.07-.4-.14-.73-.2-.98-.15-.57-.33-.94-.53-1.1-.2-.17-.59-.27-1.14-.3h-2.44v-.03h-2.24c-.83,0-1.4.12-1.7.35-.32.27-.55.82-.69,1.65-.47,2.86-1.26,7.44-2.36,13.74l-.69,3.91c-.02.05-.03.12-.03.2-.02.07-.03.13-.05.18-.36,2.04-1.1,6.39-2.24,13.06-.12.74-.19,1.2-.2,1.38-.03.8.31,1.21,1.04,1.23,1.1.05,2.46.06,4.07.03.69-.02,1.11-.38,1.25-1.1.47-2.39.73-3.78.76-4.16.14-1.3.44-2.11.92-2.41.32-.22,1.16-.32,2.52-.3.02,0,.15,0,.41.03.78.03,1.28.37,1.52.98h.14c.32.02.56.1.73.25-.28,0-.53,0-.77,0,0,0,0,.01,0,.02.2.94.32,1.53.36,1.78.07.4.15.99.25,1.78.1.8.19,1.4.25,1.78.07.49.2.83.41,1.03.22.18.57.3,1.04.35Zm-3.36-14.32c-.05.37-.54.55-1.47.55-1,.02-1.5-.18-1.5-.58,0-.17,0-.39.03-.68.19-2.12.47-3.68.86-4.66.08-.18.23-.3.43-.35.27-.07.49.05.66.35.15.27.25.52.28.75.02.07.13.64.33,1.73.17.9.28,1.58.33,2.03.07.49.08.77.05.85Z"/>
      <path class="cls-3" d="m139.34,48.37c.07.25.14.59.2,1.03l2.26,13.14c.16.55.53,3.15.51,3.03l.25,1.46,2.16,12.66c.3,1.81.3,2.89-.03,3.26-.3.37-1.13.55-2.47.55l-1.5-.03c-.37,0-.74,0-1.09-.03.22.15.53.24.92.28.24.02.99.03,2.26.03,1.3.02,2.08-.09,2.34-.33.39-.35.46-1.26.2-2.73-.29-1.69-.66-3.88-1.12-6.57-.59-3.49-.97-5.68-1.12-6.54l-.81-4.76c-.47-2.76-1.19-6.9-2.14-12.44-.07-.42-.14-.74-.2-.98-.17-.65-.4-1.05-.69-1.2,0,.02,0,.04.03.08,0,.03,0,.07.03.1Z"/>
      <path class="cls-3" d="m136.48,75.48c-.12-.02-.19-.03-.23-.03h-.78c-.8,0-1.3.09-1.48.28-.25.23-.44.87-.55,1.91-.07.7-.24,1.73-.53,3.08-.1.52-.18.89-.23,1.1-.18,1.04-.79,1.57-1.81,1.6-.8.02-1.51.03-2.13.03-.3,0-.75,0-1.35-.03.18.17.41.25.68.25,1.09.05,2.42.06,4.01.03.69-.02,1.1-.38,1.25-1.1.45-2.37.69-3.76.73-4.16.13-1.29.43-2.09.88-2.41.25-.17.8-.27,1.64-.29-.02-.1-.07-.17-.1-.26h0Z"/>
      <path class="cls-3" d="m134.56,64.37c-.02-.13-.08-.28-.18-.45-.31.8-.53,2.01-.66,3.61-.02.2-.03.34-.03.43.12.03.33.06.64.08.12-.92.26-1.79.43-2.61-.02-.07-.03-.12-.05-.15-.08-.45-.14-.75-.15-.9Z"/>
      <path class="cls-5" d="m160.16,75.68c.49,2.02.83,3.4,1.02,4.14.19.72.35,1.3.48,1.73.2.62.59.95,1.17,1,1.68.17,3.25.17,4.7,0,.25-.03.46-.15.61-.35.14-.18.19-.41.15-.68-.07-.48-.2-1.07-.38-1.76-1.41-5.4-2.34-8.93-2.8-10.58-.34-1.24-.15-2.31.56-3.21,1-1.24,1.51-2.46,1.53-3.66.03-4.7.03-7.73-.02-9.1-.07-1.44-.57-2.71-1.5-3.81-.92-1.09-2.08-1.81-3.48-2.18-1.69-.42-3.19-.62-4.47-.6-.7.02-1.62.03-2.77.03h-2.75c-1.27,0-2.02.12-2.24.35-.25.25-.38,1.01-.38,2.28-.02,2.02-.03,6.77-.03,14.24v3.81c0,6.37,0,10.46.03,12.29,0,.87,0,1.48.03,1.83.08.74.48,1.12,1.2,1.15,1.22.05,2.44.05,3.66,0,.71-.03,1.12-.41,1.22-1.13.03-.32.05-.85.05-1.6v-3.66c0-1.52,0-2.72.03-3.61,0-.82.03-1.43.1-1.83.12-.8.56-1.25,1.32-1.35.76-.08,1.3.24,1.63.98,0,0,0,.01,0,.02.25.02.47.13.65.36-.17.06-.32.15-.44.25.05.16.09.33.14.53.25,1.04.58,2.42.99,4.14Zm-3.05-12.19c-.83-.22-1.26-.75-1.3-1.6v-3.84h-.03v-3.44c.1-1.39.88-1.99,2.34-1.81.19.02.45.07.79.15.85.2,1.46.5,1.83.9.37.42.59,1.04.66,1.88.03.4.03,1.94,0,4.61,0,.1-.04.3-.13.6-.22.95-.73,1.67-1.53,2.16-.8.49-1.68.61-2.64.38Z"/>
      <path class="cls-3" d="m168.24,60.91v1.78c-.02,1.35-.58,2.71-1.68,4.06-.58.72-.72,1.6-.43,2.66.51,1.87,1.26,4.72,2.26,8.55l.53,2.03c.19.7.31,1.31.38,1.83.07.43-.03.82-.28,1.15-.25.33-.59.53-1.02.58-.78.08-1.59.13-2.41.13-.49,0-1.07-.03-1.73-.08.2.13.41.22.61.25,1.69.15,3.26.14,4.7-.03.25-.03.46-.14.61-.33.14-.22.19-.45.15-.7-.07-.5-.19-1.09-.38-1.78-1.41-5.43-2.34-8.96-2.8-10.58-.34-1.24-.14-2.3.58-3.18,1-1.25,1.5-2.48,1.5-3.69.05-4.71.04-7.75-.03-9.1-.05-1.3-.47-2.48-1.27-3.54.39.87.61,1.75.66,2.63.07,1.64.08,4.09.03,7.35Z"/>
      <path class="cls-3" d="m160.58,54.06c-.17-.05-.32-.09-.45-.13-.32-.08-.55-.13-.7-.15-.17-.02-.31-.03-.43-.03-.75,0-1.15.43-1.2,1.28-.03.5-.04,1.28-.02,2.33v.45l.02.6v1.13c-.02.89,0,1.59.03,2.11.02.49.23.8.63.95l-.02-.03v-3.28h-.03c0-2.12,0-3.26.03-3.41.08-1.35.8-1.96,2.16-1.83Z"/>
      <path class="cls-3" d="m158.74,70.39h-.12c-.44.07-.69.34-.78.83-.07.38-.1.97-.1,1.76v7.4c0,.67-.02,1.18-.05,1.53-.12,1.09-.71,1.65-1.78,1.71-.6.02-1.21.03-1.83.03-.32,0-.77,0-1.35-.03.18.17.43.26.75.28,1.22.05,2.44.05,3.66,0,.7-.03,1.09-.42,1.15-1.15.05-.32.08-.85.08-1.6v-7.27c0-.79.03-1.39.1-1.81.07-.45.26-.79.56-1.03-.07-.24-.14-.45-.21-.61-.03,0-.05-.02-.07-.02Z"/>
      <path class="cls-3" d="m181.18,62.91v10.58c0,.72.02,1.25.05,1.6.05.64.27,1.02.66,1.15-.03-.17-.04-.24-.02-.23-.03-.32-.05-.99-.05-2.01v-22.82c-.02-.97-.04-1.65-.08-2.03-.05-.5-.26-.83-.64-.98v.05c.05.4.08,1.01.08,1.83v12.84Z"/>
      <path class="cls-5" d="m176.46,82.67c1.47.02,5.02.02,10.63,0,.58,0,.99,0,1.25-.03.75-.08,1.13-.47,1.14-1.15.07-1.2.07-2.42,0-3.64-.02-.74-.4-1.13-1.14-1.18-.24-.02-1.19-.03-2.85-.05-2.24-.03-3.4-.05-3.48-.05-1.08-.08-1.69-.69-1.8-1.81-.03-.32-.05-.99-.05-2.03v-22.79c0-.99-.02-1.66-.05-2.03-.07-.69-.47-1.06-1.2-1.13-.49-.03-1.25-.05-2.26-.05-1.27.02-2.03.14-2.26.38-.24.23-.36.99-.36,2.26v30.89c0,1.14.12,1.82.36,2.06.24.23.93.35,2.08.35Z"/>
      <path class="cls-3" d="m189.34,83.63c-.28.02-.69.03-1.23.05h-6.24c-1.55,0-2.99,0-4.31-.03h-.75c.25.18.91.28,1.98.28,1.45.02,4.96.03,10.51.03.55,0,.95-.02,1.2-.05.74-.08,1.12-.47,1.15-1.15.05-1.2.05-2.42,0-3.64-.03-.55-.25-.9-.65-1.05.02.12.03.17.03.15.05,1.22.05,2.45,0,3.69-.05,1.02-.61,1.6-1.68,1.73Z"/>
      <path class="cls-5" d="m196.87,82.6c.52.05,1.27.08,2.24.08,1.29,0,2.05-.12,2.29-.35.24-.25.36-1.01.36-2.28v-30.26c0-.85-.02-1.45-.05-1.81-.07-.72-.45-1.11-1.14-1.18-.47-.03-1.23-.05-2.26-.05-1.29,0-2.06.12-2.31.35-.24.23-.36.98-.36,2.23v30.49c0,.72.03,1.25.08,1.6.08.72.47,1.11,1.17,1.18Z"/>
      <path class="cls-3" d="m202.79,67.33v13.11c-.02,1.44-.19,2.33-.53,2.68-.36.35-1.26.53-2.72.53h-.33c-.44,0-.89,0-1.35-.03.2.13.42.21.66.23.53.05,1.28.08,2.26.08,1.27,0,2.02-.12,2.26-.35.24-.23.36-.99.38-2.26v-30.29c0-.85-.02-1.45-.05-1.81-.07-.55-.3-.9-.69-1.05.03.15.05.18.05.1.03.38.05.95.05,1.71v17.35Z"/>
      <path class="cls-5" d="m224.55,82.62c.54,0,1.02-.03,1.42-.1.63-.08.98-.43,1.07-1.05.14-1.22.14-2.49,0-3.81-.05-.6-.41-.94-1.07-1-.32-.03-.86-.06-1.63-.08-3.53-.02-5.23-.03-5.11-.03-.83-.02-1.41-.18-1.73-.5-.32-.3-.5-.85-.53-1.65-.07-1.57-.07-2.98,0-4.24.07-1.1.31-1.81.71-2.11.3-.22.94-.33,1.91-.33,1.53,0,2.69-.02,3.48-.05.73-.05,1.12-.43,1.17-1.15.05-1.09.06-2.16.03-3.21-.02-.62-.14-1.03-.36-1.23-.2-.22-.61-.34-1.22-.38-.39-.02-1.01-.03-1.86-.03-.78,0-1.39,0-1.83-.03-.71-.03-1.22-.2-1.53-.5-.3-.3-.47-.8-.48-1.5-.07-1.62-.08-3.29-.03-5.01.03-.8.21-1.35.53-1.65.32-.32.91-.48,1.75-.5-.15,0,1.55,0,5.11-.03.76,0,1.31-.02,1.63-.05.64-.08.99-.43,1.04-1.03.07-.57.09-1.3.08-2.21-.02-1.1-.14-1.77-.38-2.01-.24-.23-.93-.35-2.09-.35-3.46-.02-7.19-.02-11.21,0-1.25,0-2,.12-2.24.35-.24.25-.36,1.01-.38,2.28v29.76c0,.94.02,1.54.05,1.81.03.57.17.96.41,1.18.22.22.64.35,1.25.4.17.02.44.03.81.03h11.21Z"/>
      <path class="cls-3" d="m228.08,78.01c.13,1.35.12,2.66-.03,3.91-.1.92-.62,1.45-1.56,1.58-.43.07-.93.1-1.48.1h-11.06c-.25,0-.47,0-.65-.03.23.15.59.24,1.05.28.18.02.45.03.8.03h11.06c.53,0,1-.03,1.4-.1.64-.08.99-.43,1.05-1.05.13-1.22.13-2.49,0-3.81-.03-.45-.23-.75-.6-.9Z"/>
      <g>
        <path class="cls-3" d="m283.12,54.61c-.34.05-.84.07-1.49.07h-2.93c-.81,0-1.51,0-2.1.02-.65.02-1.08.12-1.29.32-.2.18-.3.59-.32,1.22-.06,1.66-.06,3.27,0,4.83.03.7.24,1.12.63,1.27-.02-.15-.02-.28-.02-.39-.06-1.58-.07-3.2-.02-4.88.03-.78.2-1.32.51-1.61.31-.29.87-.46,1.68-.49-.11,0,1.52,0,4.9-.02.73,0,1.25-.02,1.56-.05.62-.08.96-.41,1.02-1,.05-.57.06-1.28.05-2.15,0-.75-.04-1.25-.12-1.51-.08-.33-.27-.54-.56-.63.05.33.08.76.1,1.29,0,.88-.02,1.61-.07,2.2-.08.91-.59,1.41-1.54,1.51Z"/>
        <path class="cls-3" d="m297.96,61.68c-.05-.2-.08-.36-.1-.49-.15-1.64-.12-3.07.07-4.29.16-1.07.76-1.59,1.78-1.56-.28-.13-.61-.21-1-.24-.11-.02-.22-.02-.32-.02-.34,0-.59.07-.73.2-.16.15-.28.44-.34.88-.2,1.15-.21,2.54-.05,4.15.07.76.29,1.23.68,1.39Z"/>
        <g>
          <path class="cls-7" d="m337.65,62.6h-2.75v-3.34h-2.88v-2.98h2.76v-3.04h-2.88v3.01h-9.05v-3.01h-2.88v3.04h2.88v3.01h-3.03v3.53h-2.88v-6.57h-3.3v9.4h3.3v3.2h2.88v3.13h-2.73v3.04h2.88v-3.01h2.73v-3.16h9.33v3.13h2.75v2.85h2.88v-3.04h-2.75v-3.15h2.88v-2.98h3.3v-9.4h-3.43v6.36Zm-11.59,3.22h-3.37v-3.53h3.37v3.53Zm5.96,0h-3.07v-3.53h3.07v3.53Z"/>
          <path class="cls-5" d="m281.27,83.07c.52,0,.98-.03,1.37-.1.6-.08.94-.42,1.02-1.02.13-1.19.13-2.42,0-3.71-.05-.59-.39-.91-1.02-.98-.31-.03-.83-.06-1.56-.07-3.38-.02-5.02-.02-4.9-.02-.8-.02-1.35-.18-1.66-.49-.31-.29-.48-.83-.51-1.61-.06-1.53-.06-2.9,0-4.12.06-1.07.29-1.76.68-2.05.29-.21.9-.32,1.83-.32,1.46,0,2.58-.02,3.34-.05.7-.05,1.07-.42,1.12-1.12.05-1.06.06-2.1.02-3.12-.02-.6-.13-1-.34-1.2-.2-.21-.59-.33-1.17-.37-.37-.02-.97-.02-1.78-.02-.75,0-1.33,0-1.76-.02-.68-.03-1.17-.2-1.46-.49-.29-.29-.45-.78-.46-1.46-.07-1.58-.07-3.2-.02-4.88.03-.78.2-1.32.51-1.61.31-.31.87-.47,1.68-.49-.15,0,1.49,0,4.9-.02.73,0,1.25-.02,1.56-.05.62-.08.95-.41,1-1,.06-.55.09-1.27.07-2.15-.02-1.07-.14-1.72-.37-1.95-.23-.23-.89-.34-2-.34-3.32-.02-6.9-.02-10.76,0-1.2,0-1.92.11-2.15.34-.23.24-.35.98-.37,2.22v28.95c0,.91.02,1.5.05,1.76.03.55.16.94.39,1.15.21.21.61.34,1.19.39.16.02.42.02.78.02h10.76Z"/>
          <path class="cls-3" d="m284.66,78.59c.13,1.32.12,2.59-.02,3.81-.1.89-.6,1.41-1.51,1.54-.42.06-.9.1-1.44.1h-10.76c-.24,0-.46,0-.63-.02.23.15.57.24,1.02.27.18.02.44.02.78.02h10.76c.52,0,.98-.03,1.37-.1.62-.08.96-.42,1.02-1.02.13-1.19.13-2.42,0-3.71-.03-.44-.23-.73-.59-.88Z"/>
          <path class="cls-3" d="m276.27,70.12c.29-.21.91-.32,1.85-.32,1.45,0,2.55-.02,3.32-.05.7-.05,1.07-.42,1.12-1.12.05-1.06.06-2.1.02-3.12-.03-.76-.24-1.23-.63-1.39.02.15.02.32.02.51.05,1.06.04,2.12-.02,3.2-.07,1.04-.63,1.59-1.68,1.66-.67.03-1.5.05-2.49.05h-1.02c-.73,0-1.19.07-1.37.22-.21.2-.34.73-.39,1.61-.06,1.17-.06,2.51,0,4.02.03.81.24,1.29.63,1.44-.02-.16-.03-.34-.05-.54-.05-1.54-.04-2.92.02-4.12.05-1.07.27-1.76.66-2.05Z"/>
          <path class="cls-3" d="m306.23,65.08c0,.16.15.41.44.76-.03-.05.02.02.17.22-.03-.34.14-.76.51-1.24,1.53-2,2.09-4.54,1.68-7.61-.21-1.67-.74-3.13-1.59-4.37.49,1.02.81,2.16.98,3.41.44,3.24-.16,5.93-1.81,8.07-.26.34-.39.59-.39.76Z"/>
          <path class="cls-5" d="m300.47,83c2.26-.16,4.11-1.1,5.56-2.8,1.32-1.58,1.96-3.34,1.93-5.29-.02-1.15,0-2.06.02-2.73.08-2.49-.63-4.59-2.15-6.32-.39-.44-.59-.81-.59-1.12-.02-.29.15-.67.51-1.15,1.53-2,2.09-4.54,1.68-7.61-.33-2.5-1.3-4.46-2.93-5.85-1.56-1.35-3.48-1.98-5.76-1.9-.83.03-1.88.04-3.15.02-1.87-.02-2.91-.02-3.12-.02-1.24.02-1.97.14-2.2.37-.23.23-.34.95-.34,2.17-.02,2-.02,6.36-.02,13.07v16.05c0,.81,0,1.33.02,1.56.05.6.18,1.02.39,1.24.21.24.59.37,1.15.37,4.68.07,7.67.05,8.98-.05Zm.41-7.39c-.57,1.07-1.62,1.58-3.15,1.51-.88-.03-1.35-.49-1.41-1.37-.02-.16-.02-1.2-.02-3.12h-.05c0-1.71,0-2.62.02-2.73.08-.98.46-1.63,1.15-1.98.68-.34,1.46-.26,2.34.24.72.42,1.21,1.01,1.49,1.76.73,1.97.61,3.86-.37,5.68Zm-4.56-19.93c.11-.62.33-1.05.63-1.29.31-.23.78-.31,1.41-.24,1.33.11,2.19.8,2.56,2.05.02.07.13.58.34,1.54-.03,1.11-.29,2.1-.78,2.98-.28.5-.73.86-1.37,1.07-1.74.57-2.69-.03-2.85-1.8-.15-1.64-.13-3.07.05-4.29Z"/>
          <path class="cls-3" d="m308.01,67.81c.7,1.4,1.02,2.98.95,4.73-.03.67-.03,1.57,0,2.71.03,2.1-.67,3.99-2.1,5.68-1.56,1.85-3.54,2.86-5.93,3.02-1.15.08-2.46.12-3.93.12-.67,0-1.76,0-3.29-.02-.62-.02-1.17-.03-1.66-.05.23.18.57.27,1.02.27,4.7.06,7.7.05,9-.05,2.26-.16,4.11-1.1,5.54-2.81,1.32-1.58,1.96-3.34,1.93-5.29-.02-1.15,0-2.06.02-2.73.08-2.16-.44-4.02-1.56-5.59Z"/>
          <path class="cls-3" d="m297.25,70.32c-.03.39-.04,1-.02,1.83v.27h.02l.02.59v.95c-.02.96,0,1.67.02,2.12.03.42.24.68.61.78-.02-.13-.02-1.13-.02-3h-.05c0-1.71,0-2.62.02-2.73.11-1.35.73-2.06,1.85-2.15-.37-.2-.72-.29-1.02-.29-.86,0-1.34.55-1.44,1.63Z"/>
          <path class="cls-3" d="m246.05,72.63c-.02.1-.02.13-.02.1l-.19,1.41c-.43,3.01-.76,5.26-.98,6.75-.18,1.18-.43,1.91-.77,2.2s-1.12.43-2.34.43h-.19c-.64,0-1.22-.02-1.75-.05.22.18.5.27.84.29.59.03,1.23.05,1.91.05,1.16,0,1.89-.12,2.18-.36.27-.22.49-.9.67-2.03.17-1.16.49-3.38.96-6.65-.1-.61-.17-1.05-.22-1.34-.03-.27-.06-.53-.1-.79Z"/>
          <path class="cls-5" d="m252.37,82.42c.57-.03.96-.14,1.17-.33.19-.21.33-.6.43-1.17.02-.06.02-.16.02-.29.02-.13.03-.22.05-.29.92-5.95,1.52-9.73,1.77-11.34.1-.54.24-1.36.43-2.46.18-1.08.31-1.9.41-2.44.14-.92.71-4.58,1.7-10.98.3-1.96.48-3.1.53-3.42.1-.84-.29-1.29-1.15-1.34-.85-.05-1.8-.06-2.87-.05-.78.03-1.28.14-1.51.31-.24.19-.42.65-.55,1.39-.11.67-.24,1.52-.38,2.56-.19,1.48-.3,2.34-.33,2.56-.22,1.53-.42,2.79-.6,3.78-.06.38-.27.6-.62.65-.32.03-.54-.16-.67-.57-.14-.46-.24-.83-.29-1.1-.11-.73-.26-1.75-.46-3.04-.21-1.42-.36-2.43-.45-3.04-.02-.1-.14-.84-.38-2.25-.13-.77-.56-1.16-1.29-1.2-1.42-.03-2.63-.03-3.64,0-.65.02-1.04.36-1.15,1.03-.16.94-.43,2.71-.81,5.31-.03.22-.12.92-.26,2.08-.11.85-.21,1.54-.31,2.08-.05.29-.16.53-.33.72-.16.18-.32.24-.48.19-.32-.1-.53-.39-.62-.89-.1-.57-.21-1.33-.33-2.27-.18-1.15-.3-1.91-.36-2.27-.25-1.64-.52-3.28-.79-4.9-.13-.67-.53-1.02-1.2-1.05-.1-.02-.73-.02-1.91-.02v-.05h-.77c-.96-.02-1.56.1-1.79.33-.29.29-.33.97-.14,2.03.27,1.58,1.76,10.52,4.47,26.82.1.56.33,1.81.69,3.76.13.73.57,1.12,1.32,1.15.59.03,1.23.05,1.91.05,1.16,0,1.89-.12,2.18-.36.27-.22.49-.9.67-2.03.21-1.44.59-4.08,1.15-7.94.1-.73.25-1.21.46-1.44.14-.18.3-.26.48-.26.21.02.35.13.43.33.22.59.41,1.46.55,2.61.1.73.32,2.05.67,3.95.3,1.67.5,3.01.6,4,.05.67.42,1.03,1.12,1.08,1.13.06,2.22.08,3.25.05Z"/>
          <path class="cls-3" d="m260.07,49.81c.03.21.03.45,0,.72-.06.56-.18,1.39-.36,2.49l-.6,3.85c-.57,3.72-1,6.4-1.27,8.04-.08.57-.22,1.41-.43,2.51-.19,1.15-.33,1.95-.41,2.42-.32,2.07-.77,4.99-1.36,8.73l-.41,2.61s-.02.14-.02.26c-.02.14-.03.25-.05.31-.1.65-.27,1.1-.53,1.34-.27.24-.72.38-1.34.41-.4.02-.8.02-1.2.02-.65,0-1.33-.02-2.03-.07.21.17.47.27.79.29,1.13.06,2.22.08,3.25.05.57-.03.96-.14,1.17-.33.19-.19.33-.58.43-1.17.02-.06.02-.16.02-.29.02-.13.03-.22.05-.29.96-6.12,1.55-9.91,1.77-11.34.08-.54.22-1.36.43-2.46.17-1.08.31-1.9.41-2.44.16-1.02.73-4.68,1.7-10.98.3-1.96.48-3.09.53-3.4.08-.67-.1-1.09-.55-1.27Z"/>
        </g>
        <path class="cls-3" d="m239.97,50.79c-.08-.43-.29-.73-.65-.91.06.18.1.27.1.29.27,1.56.54,3.21.81,4.93.06.42.15,1.03.26,1.84.03.13.06.31.1.55.03.27.06.46.07.55.1-.61.17-1.11.24-1.51-.1-.64-.14-.92-.14-.84-.26-1.61-.52-3.25-.79-4.91Z"/>
        <path class="cls-3" d="m249.93,50.98c.13.72.22,1.24.29,1.58.08.61.21,1.51.38,2.7.19,1.26.33,2.2.43,2.82.1-.59.18-1.07.24-1.44-.24-1.56-.42-2.72-.53-3.47-.02-.11-.14-.87-.38-2.27-.08-.48-.3-.82-.67-1.03.06.21.1.34.12.41l.12.69Z"/>
      </g>
    </g>
  </g>
</svg>